<mxfile host="app.diagrams.net" modified="2021-08-02T12:30:51.290Z" agent="5.0 (Macintosh; Intel Mac OS X 10_15_7) AppleWebKit/537.36 (KHTML, like Gecko) Chrome/92.0.4515.107 Safari/537.36" etag="bZcwdbs1euSMOnoVN2jA" version="14.9.3" type="github">
  <diagram id="9VU5KlYYtJkSXnIe3-1J" name="Page-1">
    <mxGraphModel dx="1298" dy="834" grid="1" gridSize="10" guides="1" tooltips="1" connect="1" arrows="1" fold="1" page="1" pageScale="1" pageWidth="827" pageHeight="1169" math="0" shadow="0">
      <root>
        <mxCell id="0" />
        <mxCell id="1" parent="0" />
        <mxCell id="8QVmMiPseenbbdENvEyn-3" style="edgeStyle=orthogonalEdgeStyle;orthogonalLoop=1;jettySize=auto;html=1;strokeColor=#006658;fontColor=#5C5C5C;" parent="1" source="8QVmMiPseenbbdENvEyn-1" target="8QVmMiPseenbbdENvEyn-2" edge="1">
          <mxGeometry relative="1" as="geometry" />
        </mxCell>
        <mxCell id="8QVmMiPseenbbdENvEyn-1" value="" style="whiteSpace=wrap;html=1;fillColor=#21C0A5;strokeColor=#006658;fontColor=#5C5C5C;" parent="1" vertex="1">
          <mxGeometry x="550" y="90" width="120" height="60" as="geometry" />
        </mxCell>
        <mxCell id="8QVmMiPseenbbdENvEyn-18" style="edgeStyle=orthogonalEdgeStyle;orthogonalLoop=1;jettySize=auto;html=1;entryX=0.5;entryY=0;entryDx=0;entryDy=0;entryPerimeter=0;strokeColor=#006658;fontColor=#5C5C5C;" parent="1" source="8QVmMiPseenbbdENvEyn-2" target="8QVmMiPseenbbdENvEyn-17" edge="1">
          <mxGeometry relative="1" as="geometry" />
        </mxCell>
        <mxCell id="8QVmMiPseenbbdENvEyn-2" value="" style="shape=card;whiteSpace=wrap;html=1;fillColor=#21C0A5;strokeColor=#006658;fontColor=#5C5C5C;" parent="1" vertex="1">
          <mxGeometry x="290" y="320" width="80" height="90" as="geometry" />
        </mxCell>
        <mxCell id="8QVmMiPseenbbdENvEyn-4" value="Table" style="shape=table;startSize=30;container=1;collapsible=1;childLayout=tableLayout;fixedRows=1;rowLines=0;fontStyle=1;align=center;resizeLast=1;fillColor=#21C0A5;strokeColor=#006658;fontColor=#5C5C5C;" parent="1" vertex="1">
          <mxGeometry x="570" y="320" width="180" height="160" as="geometry" />
        </mxCell>
        <mxCell id="8QVmMiPseenbbdENvEyn-5" value="" style="shape=partialRectangle;collapsible=0;dropTarget=0;pointerEvents=0;fillColor=none;top=0;left=0;bottom=1;right=0;points=[[0,0.5],[1,0.5]];portConstraint=eastwest;strokeColor=#006658;fontColor=#5C5C5C;" parent="8QVmMiPseenbbdENvEyn-4" vertex="1">
          <mxGeometry y="30" width="180" height="30" as="geometry" />
        </mxCell>
        <mxCell id="8QVmMiPseenbbdENvEyn-6" value="PK" style="shape=partialRectangle;connectable=0;fillColor=none;top=0;left=0;bottom=0;right=0;fontStyle=1;overflow=hidden;strokeColor=#006658;fontColor=#5C5C5C;" parent="8QVmMiPseenbbdENvEyn-5" vertex="1">
          <mxGeometry width="30" height="30" as="geometry" />
        </mxCell>
        <mxCell id="8QVmMiPseenbbdENvEyn-7" value="UniqueID" style="shape=partialRectangle;connectable=0;fillColor=none;top=0;left=0;bottom=0;right=0;align=left;spacingLeft=6;fontStyle=5;overflow=hidden;strokeColor=#006658;fontColor=#5C5C5C;" parent="8QVmMiPseenbbdENvEyn-5" vertex="1">
          <mxGeometry x="30" width="150" height="30" as="geometry" />
        </mxCell>
        <mxCell id="8QVmMiPseenbbdENvEyn-8" value="" style="shape=partialRectangle;collapsible=0;dropTarget=0;pointerEvents=0;fillColor=none;top=0;left=0;bottom=0;right=0;points=[[0,0.5],[1,0.5]];portConstraint=eastwest;strokeColor=#006658;fontColor=#5C5C5C;" parent="8QVmMiPseenbbdENvEyn-4" vertex="1">
          <mxGeometry y="60" width="180" height="30" as="geometry" />
        </mxCell>
        <mxCell id="8QVmMiPseenbbdENvEyn-9" value="" style="shape=partialRectangle;connectable=0;fillColor=none;top=0;left=0;bottom=0;right=0;editable=1;overflow=hidden;strokeColor=#006658;fontColor=#5C5C5C;" parent="8QVmMiPseenbbdENvEyn-8" vertex="1">
          <mxGeometry width="30" height="30" as="geometry" />
        </mxCell>
        <mxCell id="8QVmMiPseenbbdENvEyn-10" value="Row 1" style="shape=partialRectangle;connectable=0;fillColor=none;top=0;left=0;bottom=0;right=0;align=left;spacingLeft=6;overflow=hidden;strokeColor=#006658;fontColor=#5C5C5C;" parent="8QVmMiPseenbbdENvEyn-8" vertex="1">
          <mxGeometry x="30" width="150" height="30" as="geometry" />
        </mxCell>
        <mxCell id="8QVmMiPseenbbdENvEyn-11" value="" style="shape=partialRectangle;collapsible=0;dropTarget=0;pointerEvents=0;fillColor=none;top=0;left=0;bottom=0;right=0;points=[[0,0.5],[1,0.5]];portConstraint=eastwest;strokeColor=#006658;fontColor=#5C5C5C;" parent="8QVmMiPseenbbdENvEyn-4" vertex="1">
          <mxGeometry y="90" width="180" height="30" as="geometry" />
        </mxCell>
        <mxCell id="8QVmMiPseenbbdENvEyn-12" value="" style="shape=partialRectangle;connectable=0;fillColor=none;top=0;left=0;bottom=0;right=0;editable=1;overflow=hidden;strokeColor=#006658;fontColor=#5C5C5C;" parent="8QVmMiPseenbbdENvEyn-11" vertex="1">
          <mxGeometry width="30" height="30" as="geometry" />
        </mxCell>
        <mxCell id="8QVmMiPseenbbdENvEyn-13" value="Row 2" style="shape=partialRectangle;connectable=0;fillColor=none;top=0;left=0;bottom=0;right=0;align=left;spacingLeft=6;overflow=hidden;strokeColor=#006658;fontColor=#5C5C5C;" parent="8QVmMiPseenbbdENvEyn-11" vertex="1">
          <mxGeometry x="30" width="150" height="30" as="geometry" />
        </mxCell>
        <mxCell id="8QVmMiPseenbbdENvEyn-14" value="" style="shape=partialRectangle;collapsible=0;dropTarget=0;pointerEvents=0;fillColor=none;top=0;left=0;bottom=0;right=0;points=[[0,0.5],[1,0.5]];portConstraint=eastwest;strokeColor=#006658;fontColor=#5C5C5C;" parent="8QVmMiPseenbbdENvEyn-4" vertex="1">
          <mxGeometry y="120" width="180" height="30" as="geometry" />
        </mxCell>
        <mxCell id="8QVmMiPseenbbdENvEyn-15" value="" style="shape=partialRectangle;connectable=0;fillColor=none;top=0;left=0;bottom=0;right=0;editable=1;overflow=hidden;strokeColor=#006658;fontColor=#5C5C5C;" parent="8QVmMiPseenbbdENvEyn-14" vertex="1">
          <mxGeometry width="30" height="30" as="geometry" />
        </mxCell>
        <mxCell id="8QVmMiPseenbbdENvEyn-16" value="Row 3" style="shape=partialRectangle;connectable=0;fillColor=none;top=0;left=0;bottom=0;right=0;align=left;spacingLeft=6;overflow=hidden;strokeColor=#006658;fontColor=#5C5C5C;" parent="8QVmMiPseenbbdENvEyn-14" vertex="1">
          <mxGeometry x="30" width="150" height="30" as="geometry" />
        </mxCell>
        <mxCell id="8QVmMiPseenbbdENvEyn-17" value="" style="strokeWidth=2;html=1;shape=mxgraph.flowchart.multi-document;whiteSpace=wrap;fillColor=#21C0A5;strokeColor=#006658;fontColor=#5C5C5C;" parent="1" vertex="1">
          <mxGeometry x="286" y="540" width="88" height="60" as="geometry" />
        </mxCell>
        <mxCell id="8QVmMiPseenbbdENvEyn-19" value="" style="verticalLabelPosition=bottom;verticalAlign=top;html=1;shape=offPageConnector;size=0.5;fillColor=#21C0A5;strokeColor=#006658;fontColor=#5C5C5C;" parent="1" vertex="1">
          <mxGeometry x="140" y="170" width="60" height="60" as="geometry" />
        </mxCell>
        <mxCell id="8QVmMiPseenbbdENvEyn-20" value="Table" style="shape=table;startSize=30;container=1;collapsible=0;childLayout=tableLayout;fontStyle=1;align=center;pointerEvents=1;fillColor=#21C0A5;strokeColor=#006658;fontColor=#5C5C5C;" parent="1" vertex="1">
          <mxGeometry x="30" y="30" width="650" height="250" as="geometry" />
        </mxCell>
        <mxCell id="8QVmMiPseenbbdENvEyn-21" value="" style="shape=partialRectangle;html=1;whiteSpace=wrap;collapsible=0;dropTarget=0;pointerEvents=0;fillColor=none;top=0;left=0;bottom=0;right=0;points=[[0,0.5],[1,0.5]];portConstraint=eastwest;strokeColor=#006658;fontColor=#5C5C5C;" parent="8QVmMiPseenbbdENvEyn-20" vertex="1">
          <mxGeometry y="30" width="650" height="75" as="geometry" />
        </mxCell>
        <mxCell id="8QVmMiPseenbbdENvEyn-22" value="" style="shape=partialRectangle;html=1;whiteSpace=wrap;connectable=0;fillColor=none;top=0;left=0;bottom=0;right=0;overflow=hidden;pointerEvents=1;strokeColor=#006658;fontColor=#5C5C5C;" parent="8QVmMiPseenbbdENvEyn-21" vertex="1">
          <mxGeometry width="217" height="75" as="geometry" />
        </mxCell>
        <mxCell id="8QVmMiPseenbbdENvEyn-23" value="" style="shape=partialRectangle;html=1;whiteSpace=wrap;connectable=0;fillColor=none;top=0;left=0;bottom=0;right=0;overflow=hidden;pointerEvents=1;strokeColor=#006658;fontColor=#5C5C5C;" parent="8QVmMiPseenbbdENvEyn-21" vertex="1">
          <mxGeometry x="217" width="216" height="75" as="geometry" />
        </mxCell>
        <mxCell id="8QVmMiPseenbbdENvEyn-24" value="" style="shape=partialRectangle;html=1;whiteSpace=wrap;connectable=0;fillColor=none;top=0;left=0;bottom=0;right=0;overflow=hidden;pointerEvents=1;strokeColor=#006658;fontColor=#5C5C5C;" parent="8QVmMiPseenbbdENvEyn-21" vertex="1">
          <mxGeometry x="433" width="217" height="75" as="geometry" />
        </mxCell>
        <mxCell id="8QVmMiPseenbbdENvEyn-25" value="" style="shape=partialRectangle;html=1;whiteSpace=wrap;collapsible=0;dropTarget=0;pointerEvents=0;fillColor=none;top=0;left=0;bottom=0;right=0;points=[[0,0.5],[1,0.5]];portConstraint=eastwest;strokeColor=#006658;fontColor=#5C5C5C;" parent="8QVmMiPseenbbdENvEyn-20" vertex="1">
          <mxGeometry y="105" width="650" height="70" as="geometry" />
        </mxCell>
        <mxCell id="8QVmMiPseenbbdENvEyn-26" value="" style="shape=partialRectangle;html=1;whiteSpace=wrap;connectable=0;fillColor=none;top=0;left=0;bottom=0;right=0;overflow=hidden;pointerEvents=1;strokeColor=#006658;fontColor=#5C5C5C;" parent="8QVmMiPseenbbdENvEyn-25" vertex="1">
          <mxGeometry width="217" height="70" as="geometry" />
        </mxCell>
        <mxCell id="8QVmMiPseenbbdENvEyn-27" value="" style="shape=partialRectangle;html=1;whiteSpace=wrap;connectable=0;fillColor=none;top=0;left=0;bottom=0;right=0;overflow=hidden;pointerEvents=1;strokeColor=#006658;fontColor=#5C5C5C;" parent="8QVmMiPseenbbdENvEyn-25" vertex="1">
          <mxGeometry x="217" width="216" height="70" as="geometry" />
        </mxCell>
        <mxCell id="8QVmMiPseenbbdENvEyn-28" value="" style="shape=partialRectangle;html=1;whiteSpace=wrap;connectable=0;fillColor=none;top=0;left=0;bottom=0;right=0;overflow=hidden;pointerEvents=1;strokeColor=#006658;fontColor=#5C5C5C;" parent="8QVmMiPseenbbdENvEyn-25" vertex="1">
          <mxGeometry x="433" width="217" height="70" as="geometry" />
        </mxCell>
        <mxCell id="8QVmMiPseenbbdENvEyn-29" value="" style="shape=partialRectangle;html=1;whiteSpace=wrap;collapsible=0;dropTarget=0;pointerEvents=0;fillColor=none;top=0;left=0;bottom=0;right=0;points=[[0,0.5],[1,0.5]];portConstraint=eastwest;strokeColor=#006658;fontColor=#5C5C5C;" parent="8QVmMiPseenbbdENvEyn-20" vertex="1">
          <mxGeometry y="175" width="650" height="75" as="geometry" />
        </mxCell>
        <mxCell id="8QVmMiPseenbbdENvEyn-30" value="" style="shape=partialRectangle;html=1;whiteSpace=wrap;connectable=0;fillColor=none;top=0;left=0;bottom=0;right=0;overflow=hidden;pointerEvents=1;strokeColor=#006658;fontColor=#5C5C5C;" parent="8QVmMiPseenbbdENvEyn-29" vertex="1">
          <mxGeometry width="217" height="75" as="geometry" />
        </mxCell>
        <mxCell id="8QVmMiPseenbbdENvEyn-31" value="" style="shape=partialRectangle;html=1;whiteSpace=wrap;connectable=0;fillColor=none;top=0;left=0;bottom=0;right=0;overflow=hidden;pointerEvents=1;strokeColor=#006658;fontColor=#5C5C5C;" parent="8QVmMiPseenbbdENvEyn-29" vertex="1">
          <mxGeometry x="217" width="216" height="75" as="geometry" />
        </mxCell>
        <mxCell id="8QVmMiPseenbbdENvEyn-32" value="" style="shape=partialRectangle;html=1;whiteSpace=wrap;connectable=0;fillColor=none;top=0;left=0;bottom=0;right=0;overflow=hidden;pointerEvents=1;strokeColor=#006658;fontColor=#5C5C5C;" parent="8QVmMiPseenbbdENvEyn-29" vertex="1">
          <mxGeometry x="433" width="217" height="75" as="geometry" />
        </mxCell>
        <mxCell id="8QVmMiPseenbbdENvEyn-33" value="" style="whiteSpace=wrap;html=1;fillColor=#21C0A5;strokeColor=#006658;fontColor=#5C5C5C;" parent="1" vertex="1">
          <mxGeometry x="30" y="320" width="120" height="60" as="geometry" />
        </mxCell>
        <mxCell id="8QVmMiPseenbbdENvEyn-34" value="" style="rhombus;whiteSpace=wrap;html=1;fillColor=#21C0A5;strokeColor=#006658;fontColor=#5C5C5C;" parent="1" vertex="1">
          <mxGeometry x="50" y="450" width="80" height="80" as="geometry" />
        </mxCell>
        <mxCell id="8QVmMiPseenbbdENvEyn-35" value="" style="shape=cylinder3;whiteSpace=wrap;html=1;boundedLbl=1;backgroundOutline=1;size=15;fillColor=#21C0A5;strokeColor=#006658;fontColor=#5C5C5C;" parent="1" vertex="1">
          <mxGeometry x="90" y="670" width="60" height="80" as="geometry" />
        </mxCell>
        <mxCell id="8QVmMiPseenbbdENvEyn-36" value="" style="shape=cylinder3;whiteSpace=wrap;html=1;boundedLbl=1;backgroundOutline=1;size=15;fillColor=#21C0A5;strokeColor=#006658;fontColor=#5C5C5C;" parent="1" vertex="1">
          <mxGeometry x="190" y="670" width="60" height="80" as="geometry" />
        </mxCell>
        <mxCell id="8QVmMiPseenbbdENvEyn-37" value="" style="shape=internalStorage;whiteSpace=wrap;html=1;backgroundOutline=1;fillColor=#21C0A5;strokeColor=#006658;fontColor=#5C5C5C;" parent="1" vertex="1">
          <mxGeometry x="480" y="630" width="80" height="80" as="geometry" />
        </mxCell>
      </root>
    </mxGraphModel>
  </diagram>
</mxfile>
